<svg xmlns="http://www.w3.org/2000/svg" fill="none" viewBox="0 0 249 66" height="66" width="249">
<path fill="white" d="M148.626 9.34028L148.629 9.33804H148.626V9.34028Z"></path>
<path fill="white" d="M48.378 24.1107C55.9535 24.113 63.5278 24.034 71.1032 23.8669C78.6787 23.6907 86.253 23.4435 93.8285 22.9675C86.253 22.4903 78.6787 22.2442 71.1032 22.068C63.5278 21.8998 55.9535 21.8219 48.378 21.8242C40.8025 21.8254 33.2282 21.9032 25.6527 22.0714C18.0773 22.2488 10.503 22.4937 2.92749 22.9686C10.503 23.4424 18.0773 23.6884 25.6527 23.8658C33.2282 24.034 40.8025 24.1118 48.378 24.113V24.1107Z"></path>
<path fill="white" d="M71.1023 60.1204C63.5268 59.9522 55.9525 59.8744 48.377 59.8767C40.8016 59.8778 33.2272 59.9556 25.6518 60.1239C18.0763 60.3012 10.502 60.5461 2.92651 61.021C10.502 61.4948 18.0763 61.7408 25.6518 61.9182C33.2272 62.0864 40.8016 62.1643 48.377 62.1654C55.9525 62.1677 63.5268 62.0887 71.1023 61.9217C78.6777 61.7454 86.2521 61.4982 93.8275 61.0222C86.2521 60.545 78.6777 60.2989 71.1023 60.1227V60.1204Z"></path>
<path fill="white" d="M180.824 23.8635C188.4 24.0317 195.974 24.1095 203.549 24.1107C211.125 24.113 218.699 24.034 226.275 23.8669C233.85 23.6907 241.424 23.4435 249 22.9675C241.424 22.4903 233.85 22.2442 226.275 22.068C218.699 21.8998 211.125 21.8219 203.549 21.8242C195.974 21.8254 188.4 21.9032 180.824 22.0714C173.249 22.2488 165.674 22.4937 158.099 22.9686C165.674 23.4424 173.249 23.6884 180.824 23.8658V23.8635Z"></path>
<path fill="white" d="M203.548 59.8767C195.973 59.8778 188.399 59.9556 180.823 60.1239C173.248 60.3012 165.673 60.5461 158.098 61.021C165.673 61.4948 173.248 61.7409 180.823 61.9182C188.399 62.0865 195.973 62.1643 203.548 62.1654C211.124 62.1677 218.698 62.0887 226.274 61.9217C233.849 61.7454 241.423 61.4982 248.999 61.0222C241.423 60.545 233.849 60.299 226.274 60.1227C218.698 59.9545 211.124 59.8767 203.548 59.879V59.8767Z"></path>
<path fill="white" d="M118.26 37.5169L136.507 29.2775L116.539 41.6366L118.26 37.5169Z"></path>
<path fill="white" d="M135.148 53.3527C136.874 50.6085 138.528 47.0907 139.911 42.5819C139.98 42.3587 140.039 42.1333 140.095 41.9079C140.357 40.8573 141.853 36.3783 149.074 31.9736C157.325 26.9395 154.802 20.8412 153.248 19.2929C153.226 19.2711 153.202 19.246 153.178 19.2208C153.124 19.3352 153.07 19.4497 153.015 19.5641C150.588 24.557 146.102 27.5174 142.91 31.866C142.827 31.9793 142.743 32.0915 142.66 32.2048C138.12 38.445 136.985 46.427 131.681 52.222C126.819 57.533 120.047 61.0577 112.895 61.9857C108.227 62.5911 103.44 62.1231 98.9067 60.8116C99.1443 61.5967 99.6791 62.273 100.418 62.6827C104.138 64.746 108.58 65.3181 112.776 65.0813C115.264 64.9405 117.73 64.5102 120.138 63.8808C122.015 63.391 123.908 62.915 125.698 62.1551C128.557 60.9421 131.207 59.3102 133.859 57.7093C136.56 56.0785 139.333 54.568 142.049 52.9613C146.882 50.1027 151.786 47.2143 156.235 43.7766C156.715 43.4058 157.189 43.0259 157.647 42.6265C157.955 42.3576 158.326 41.8232 158.684 41.6446L135.149 53.3515L135.148 53.3527Z"></path>
<path fill="white" d="M102.665 58.2391C103.09 58.3249 103.517 58.4027 103.944 58.4726C104.135 58.5035 104.327 58.5332 104.519 58.5618C104.519 58.5618 104.685 58.5847 104.765 58.5961C104.807 58.6019 104.849 58.6064 104.864 58.6087C105.992 58.7472 107.127 58.8284 108.262 58.8502C108.66 56.5317 109.596 54.6092 110.413 53.2886C110.935 52.444 111.565 51.6785 112.287 51.0182C116.671 46.9946 118.408 42.5247 118.973 40.6891C118.574 40.4717 117.994 40.2119 117.238 40.0094C115.903 39.6523 113.749 39.4143 110.842 40.1661C110.12 42.1608 108.57 43.8224 106.944 45.2666C105.695 46.3755 104.204 47.5198 102.837 48.7832C100.618 50.8362 98.7244 53.205 98.7244 56.2525L98.7358 57.2149C99.2155 57.3682 99.6975 57.5136 100.184 57.6475C101.004 57.874 101.831 58.0709 102.665 58.2391Z"></path>
<path fill="white" d="M111.247 38.2802C116.052 37.2663 119.049 38.6602 120.219 39.3971C120.229 39.3937 120.24 39.3914 120.249 39.388C123.433 38.5812 124.149 35.3278 125.334 29.9378C125.682 28.3552 126.076 26.5619 126.583 24.6348C127.022 22.9652 127.339 21.4249 127.619 20.0665C128.347 16.535 128.871 13.9831 130.813 12.7208C134.5 10.3234 139.232 14.3641 142.853 11.5009C143.584 10.923 144.1 10.1712 144.465 9.40446C145.263 7.72567 145.301 5.78826 144.634 4.0534C143.016 -0.150996 137.702 -1.82406 135.369 2.663C134.757 3.83941 133.378 6.41881 132.492 7.45789L135.102 8.40428C135.102 8.40428 137.836 1.55182 140.796 4.32233C141.577 5.05358 142.355 6.08351 142.273 7.213C142.194 8.31846 141.25 9.01537 140.28 9.36784C136.951 10.5809 133.078 9.57955 130.253 7.60895C129.414 7.02303 128.645 6.33069 128.003 5.53421C127.658 5.10736 127.304 4.62673 126.941 4.09231C124.708 0.801116 119.758 2.15604 119.466 7.7703C119.287 11.2126 118.38 13.5631 117.705 14.8665C120.312 14.4282 122.363 14.6811 123.605 15.1229C123.894 14.9031 124.247 14.7612 124.638 14.7326C125.707 14.6537 126.638 15.4559 126.715 16.5213C126.794 17.5878 125.99 18.5159 124.92 18.5937C123.852 18.6715 122.921 17.8693 122.843 16.8039C122.84 16.7707 122.843 16.7376 122.84 16.7067C122.536 16.6071 122.187 16.5121 121.792 16.4366C120.844 16.2569 119.502 16.1619 117.812 16.4492C117.185 16.5545 116.673 17.0111 116.494 17.6199L116.491 17.629L115.499 21.0038C118.488 20.3652 120.831 20.6238 122.198 21.1079C122.487 20.8882 122.84 20.7463 123.231 20.7177C124.3 20.6387 125.231 21.4409 125.308 22.5074C125.387 23.5729 124.583 24.5009 123.513 24.5788C122.445 24.6566 121.514 23.8544 121.436 22.789C121.434 22.7558 121.436 22.7226 121.434 22.6917C121.129 22.5921 120.781 22.4971 120.385 22.4216C119.384 22.2305 117.944 22.1367 116.117 22.4857C115.431 22.6162 114.877 23.1208 114.681 23.7891L113.728 27.0265C116.798 26.3399 119.205 26.5986 120.597 27.0929C120.886 26.8732 121.24 26.7313 121.63 26.7027C122.699 26.6237 123.63 27.4259 123.707 28.4925C123.786 29.5579 122.982 30.486 121.912 30.5638C120.844 30.6416 119.913 29.8394 119.835 28.774C119.833 28.7408 119.835 28.7076 119.833 28.6767C119.53 28.5772 119.18 28.4822 118.784 28.4067C117.807 28.2213 116.413 28.1274 114.649 28.4456C113.781 28.6035 113.078 29.2398 112.83 30.0843L111.958 33.0505C115.108 32.3158 117.577 32.5756 118.996 33.0791C119.285 32.8594 119.64 32.7175 120.029 32.6889C121.098 32.6099 122.029 33.4121 122.106 34.4787C122.185 35.5441 121.381 36.4721 120.312 36.55C119.243 36.6278 118.312 35.8256 118.234 34.7602C118.232 34.727 118.234 34.6938 118.232 34.6629C117.929 34.5633 117.579 34.4684 117.183 34.3928C116.198 34.2052 114.791 34.1113 113.008 34.4398C112.003 34.6251 111.26 35.4903 111.235 36.5088C111.228 36.7811 111.235 37.0535 111.252 37.3258C111.274 37.6508 111.272 37.9678 111.249 38.278L111.247 38.2802Z"></path>
<path fill="white" d="M143.758 12.6396C142.058 13.9854 139.794 14.3641 137.034 13.7679C134.391 13.1969 132.667 13.2507 131.608 13.9384C130.175 14.8699 129.702 17.1713 129.047 20.3595C128.763 21.735 128.442 23.2959 127.992 25.0045C127.493 26.9018 127.102 28.6802 126.757 30.2491C126.13 33.1054 125.633 35.3633 124.798 37.1302C123.846 39.1488 122.515 40.3126 120.608 40.7956C120.511 40.8196 120.431 40.902 120.398 41.0084C119.83 42.8932 118.002 47.7453 113.273 52.0859C112.65 52.6569 112.105 53.3183 111.652 54.0496C110.939 55.2031 110.126 56.859 109.744 58.8433C109.879 58.8399 110.017 58.8365 110.152 58.8308C110.609 58.8125 111.065 58.7838 111.52 58.7449C111.75 58.7255 111.978 58.7037 112.207 58.6786C112.335 58.6648 112.461 58.6499 112.589 58.6351C112.606 58.6328 112.638 58.6293 112.67 58.6259C113.545 58.5035 114.415 58.341 115.274 58.1396C116.177 57.9267 117.069 57.6692 117.946 57.3683C118.431 57.2012 118.907 57.0112 119.386 56.8258C119.405 56.819 119.421 56.8132 119.431 56.8098C119.453 56.8007 119.478 56.7881 119.509 56.7755C119.61 56.7309 119.71 56.6874 119.81 56.6427C120.012 56.5523 120.211 56.4596 120.411 56.3647C122.26 55.4835 124.003 54.3883 125.638 53.1593C125.692 53.1192 125.744 53.0803 125.797 53.0391C125.805 53.0334 125.813 53.0265 125.824 53.0185C125.909 52.951 125.995 52.8835 126.08 52.8148C126.267 52.6649 126.454 52.5127 126.638 52.3594C126.972 52.079 127.3 51.7918 127.622 51.4965C128.231 50.9381 128.816 50.3533 129.373 49.7411C129.649 49.4367 129.918 49.1254 130.18 48.8084C130.284 48.6825 130.384 48.5532 130.487 48.4273C130.534 48.3644 130.581 48.3037 130.628 48.2408C131.014 47.7224 131.377 47.1891 131.715 46.6387C132.018 46.1455 132.3 45.6408 132.56 45.1224C132.675 44.8935 132.784 44.6612 132.89 44.4289C132.898 44.4095 132.909 44.3854 132.919 44.3591C132.916 44.3694 132.911 44.3809 132.908 44.3934C132.939 44.3122 132.976 44.2321 133.009 44.152C133.68 42.4663 134.248 40.7544 134.996 39.0962C135.912 37.0672 136.954 35.0543 138.045 33.1134C139.05 31.3271 140.266 29.6529 141.626 28.1194C143.014 26.5551 144.609 25.1921 146.015 23.6438C146.332 23.2936 146.646 22.9366 146.95 22.575C147.078 22.4216 147.206 22.2683 147.332 22.1138C147.393 22.0383 147.455 21.9616 147.516 21.8861C147.516 21.8861 147.59 21.7911 147.643 21.7247C147.688 21.6663 147.757 21.5771 147.77 21.5588C147.838 21.4672 147.906 21.3768 147.974 21.2853C148.092 21.1251 148.208 20.9648 148.322 20.8023C148.514 20.5277 148.703 20.2508 148.885 19.9692C149.25 19.4016 149.592 18.8203 149.9 18.2195C150.037 17.9529 150.168 17.6839 150.291 17.4116C150.307 17.375 150.324 17.3383 150.34 17.3017C150.382 17.1907 150.428 17.0809 150.471 16.9699C150.471 16.9664 150.473 16.963 150.474 16.9607C150.704 16.3485 150.621 15.6641 150.263 15.1171C148.827 12.9211 147.254 10.392 146.268 8.79565C145.849 10.1048 145.1 11.5822 143.759 12.643L143.758 12.6396ZM132.926 44.3419C132.967 44.2241 132.986 44.1714 132.992 44.1577C132.987 44.176 132.956 44.2641 132.926 44.3419ZM134.743 33.5437C132.933 38.0994 130.347 43.6862 130.347 43.6862L127.762 40.5919C127.762 40.5919 130.433 35.4342 132.761 29.6758C135.088 23.9162 138.968 22.1973 138.968 22.1973L140.778 25.5492C140.778 25.5492 136.555 28.988 134.744 33.5437H134.743Z"></path>
<path fill="white" d="M3.07067 46.1093V38.7147C3.07067 36.5213 3.07067 35.4247 3.03933 34.516C3.008 33.764 2.60067 33.6073 0.814667 33.576L0.846 32.448C1.81733 32.448 4.10467 32.542 5.17 32.542C6.204 32.542 8.836 32.448 9.90133 32.448L9.87 33.576C8.30333 33.6073 7.92733 33.764 7.896 34.5787C7.83333 35.456 7.802 36.8347 7.802 38.1193V41.1587C8.46 41.19 9.52533 41.19 10.6533 41.19C11.75 41.19 12.6273 41.19 13.724 41.1587V37.712C13.724 36.114 13.724 35.2053 13.6613 34.3907C13.6613 33.764 13.1913 33.6387 11.7187 33.576L11.75 32.448C12.7213 32.4793 15.2907 32.542 16.1053 32.542C17.578 32.542 20.0533 32.4793 20.6487 32.448V33.576C18.9567 33.6387 18.612 33.764 18.5493 34.4533C18.4867 35.362 18.4553 36.8033 18.4553 38.276V45.7647C18.4553 47.7387 18.4867 49.4307 18.5493 50.214C18.5807 50.7467 18.9567 50.8407 20.7427 50.966L20.68 52.094C19.7087 52.094 17.766 52 15.886 52C14.2253 52 12.3767 52.0627 11.6247 52.094V50.966C13.1287 50.872 13.5987 50.7467 13.63 50.026C13.6613 49.368 13.724 48.146 13.724 46.0467V42.506C12.784 42.4747 11.6873 42.4747 10.5593 42.4747C9.43133 42.4747 8.46 42.4747 7.802 42.506V46.1407C7.802 48.0833 7.86467 49.3053 7.896 50.0573C7.95867 50.8093 8.39733 50.9033 9.964 50.966V52.094C8.77333 52.094 6.674 52 4.95067 52C3.60333 52 2.162 52.094 0.626667 52.094V50.966C2.41267 50.872 2.88267 50.7467 2.94533 50.026C2.97667 49.3367 3.07067 48.146 3.07067 46.1093ZM40.6244 50.966V52.094C39.7157 52.0627 38.0237 52 35.9871 52C34.2011 52 32.9477 52.0313 31.2871 52.094V50.966C32.9477 50.778 33.1671 50.6527 33.0104 49.8693C32.6971 48.4907 32.1644 46.4227 31.8197 45.0127C31.0677 44.9813 30.1591 44.9813 29.1877 44.9813C28.2477 44.9813 27.3391 44.9813 26.7124 45.0127C26.0857 47.206 25.7724 48.4907 25.6157 49.18C25.3964 50.4647 25.6471 50.778 28.1224 50.966V52.094C27.0571 52.094 25.9917 52 24.5504 52C23.5164 52 22.1691 52.094 21.0097 52.094L21.0411 50.966C22.6391 50.8407 23.2031 50.6213 23.7984 49.0233C24.6444 46.6733 27.8091 37.054 28.4044 34.9547C28.6551 34.0773 28.8431 33.482 28.9371 32.7613C29.8144 32.73 32.4777 32.4793 33.1984 32.1033C34.6711 37.6807 37.3971 47.582 38.3371 50.026C38.5251 50.59 38.8384 50.8093 39.4651 50.8407L40.6244 50.966ZM29.5011 35.3933C28.9684 37.3047 28.3417 39.2473 27.1197 43.634C27.7151 43.6653 28.5611 43.6653 29.3757 43.6653C30.1904 43.6653 30.9424 43.6653 31.4751 43.634C30.8171 40.814 30.1277 37.806 29.5011 35.3933ZM43.2471 44.4487V38.0567C43.2471 36.0827 43.2158 35.1427 43.1844 34.4847C43.1531 34.0147 42.9964 33.7327 42.4324 33.7013L40.6151 33.5133L40.8658 32.4167C41.5864 32.4167 43.2158 32.542 44.7511 32.542C46.2551 32.542 48.1038 32.4167 50.1091 32.4167C53.3051 32.4167 54.6211 33.012 55.5611 33.858C56.5638 34.798 57.1904 36.302 57.1904 38.1507C57.1904 40.1247 56.5324 41.5973 55.5298 42.5687C54.2138 43.822 52.4278 44.3233 50.7358 44.3233C49.9524 44.3233 49.2318 44.2293 48.7931 44.104L48.8244 42.9447C49.1691 43.0387 49.5764 43.07 49.9838 43.07C50.5164 43.07 51.0804 42.7567 51.3938 42.2553C51.8638 41.5033 52.1771 40.1247 52.1771 38.3387C52.1771 36.5213 51.8324 35.174 51.2998 34.516C50.8298 33.952 50.2031 33.6387 49.2004 33.6387C48.3231 33.6387 48.1664 33.764 48.1351 34.1713C48.0724 35.0173 47.9784 36.302 47.9784 38.37V42.9133V46.9553C47.9784 48.3653 48.0098 49.3053 48.0724 49.9007C48.1351 50.5273 48.3544 50.7153 49.1378 50.8093L50.8924 50.9973L50.8298 52.094C49.4824 52.094 47.6964 52 45.3778 52C43.6544 52 41.8998 52.094 40.5838 52.094V50.9973L41.8058 50.872C42.8084 50.8093 43.0591 50.6213 43.0904 49.6813C43.1844 48.522 43.2471 46.5793 43.2471 44.4487ZM60.9945 44.4487V38.0567C60.9945 36.0827 60.9632 35.1427 60.9318 34.4847C60.9005 34.0147 60.7438 33.7327 60.1798 33.7013L58.3625 33.5133L58.6132 32.4167C59.3338 32.4167 60.9632 32.542 62.4985 32.542C64.0025 32.542 65.8512 32.4167 67.8565 32.4167C71.0525 32.4167 72.3685 33.012 73.3085 33.858C74.3112 34.798 74.9378 36.302 74.9378 38.1507C74.9378 40.1247 74.2798 41.5973 73.2772 42.5687C71.9612 43.822 70.1752 44.3233 68.4832 44.3233C67.6998 44.3233 66.9792 44.2293 66.5405 44.104L66.5718 42.9447C66.9165 43.0387 67.3238 43.07 67.7312 43.07C68.2638 43.07 68.8278 42.7567 69.1412 42.2553C69.6112 41.5033 69.9245 40.1247 69.9245 38.3387C69.9245 36.5213 69.5798 35.174 69.0472 34.516C68.5772 33.952 67.9505 33.6387 66.9478 33.6387C66.0705 33.6387 65.9138 33.764 65.8825 34.1713C65.8198 35.0173 65.7258 36.302 65.7258 38.37V42.9133V46.9553C65.7258 48.3653 65.7572 49.3053 65.8198 49.9007C65.8825 50.5273 66.1018 50.7153 66.8852 50.8093L68.6398 50.9973L68.5772 52.094C67.2298 52.094 65.4438 52 63.1252 52C61.4018 52 59.6472 52.094 58.3312 52.094V50.9973L59.5532 50.872C60.5558 50.8093 60.8065 50.6213 60.8378 49.6813C60.9318 48.522 60.9945 46.5793 60.9945 44.4487ZM90.1369 50.966L90.2309 52.094C88.3509 52.094 86.4083 52 84.4969 52C82.5229 52 81.1756 52.094 79.4836 52.094L79.4209 50.966C80.0789 50.9033 80.7369 50.8093 81.3636 50.7153C82.1156 50.6213 82.3663 50.3393 82.4289 49.6187C82.4916 48.5533 82.5856 45.6393 82.5856 43.8847C82.5856 43.446 82.5229 42.976 82.2409 42.4433C81.4263 40.532 79.4209 36.7407 78.3243 34.892C77.6663 33.8267 77.2589 33.6073 75.6923 33.5447L75.6609 32.448C76.4129 32.448 78.3556 32.542 80.1416 32.542C82.3976 32.542 83.7449 32.448 84.8103 32.448L84.8729 33.5447L83.6509 33.67C83.1809 33.7327 83.1809 34.0147 83.4316 34.5473C83.9016 35.644 85.5309 39.216 86.6276 41.472C88.1316 38.3073 89.1029 36.0513 89.5103 34.892C89.8236 34.0147 89.6983 33.7953 89.2909 33.7327C88.7583 33.67 88.1629 33.6073 87.6303 33.5447L87.7243 32.448C88.3509 32.448 89.6983 32.542 91.0143 32.542C92.2049 32.542 93.1763 32.448 94.2103 32.448L94.2729 33.576C92.5496 33.67 92.1109 33.858 91.3276 35.08C90.3876 36.6153 88.7269 39.9053 87.6303 42.2867C87.3796 42.7567 87.3169 43.2267 87.3169 43.728C87.2856 45.4513 87.2856 48.6787 87.4109 50.0573C87.4423 50.4333 87.5989 50.684 88.0376 50.7153C88.5076 50.8093 89.1343 50.872 90.1369 50.966Z"></path>
<path fill="white" d="M170.689 33.576L170.595 32.448C171.629 32.448 174.073 32.542 176.016 32.542H180.089C183.411 32.542 184.915 32.448 185.855 32.354C185.604 34.2967 185.604 37.43 185.604 38.3073H184.601C184.476 37.618 184.257 36.3333 183.755 35.2993C183.223 34.1713 182.345 33.7013 179.713 33.7013H178.46C178.147 33.7013 177.896 33.7953 177.865 34.14C177.833 34.4533 177.771 35.644 177.771 38.464V41.66C178.115 41.7227 178.773 41.7227 179.306 41.7227C181.374 41.7227 182.095 41.284 182.439 38.8087L183.505 38.8713C183.285 40.814 183.348 45.0127 183.505 46.2973H182.439C181.969 43.7593 181.687 42.976 179.275 42.976C178.742 42.976 178.053 42.976 177.771 43.0387V45.8273C177.771 48.2713 177.833 49.274 177.865 49.8693C177.896 50.402 178.115 50.684 178.648 50.7467C179.087 50.8093 179.839 50.9033 180.685 50.966L180.622 52.094C179.463 52.094 177.175 52 175.483 52C173.729 52 171.629 52.094 170.595 52.094L170.533 50.966L172.005 50.8407C172.601 50.778 172.883 50.59 172.945 50.0573C172.977 49.3993 173.071 47.676 173.071 45.138V38.746C173.071 36.1767 173.039 34.8607 172.977 34.3907C172.945 33.952 172.726 33.7327 172.35 33.7013L170.689 33.576ZM187.671 33.5447V32.448C188.736 32.448 191.274 32.542 192.872 32.542H198.105C200.016 32.542 201.52 32.4793 202.523 32.354C202.398 33.3253 202.366 36.584 202.398 38.1193L201.364 38.182C201.176 37.3047 200.894 36.1453 200.424 35.3307C199.672 33.9833 199.139 33.7327 196.444 33.7327H195.536C195.097 33.7327 194.972 33.952 194.94 34.2653C194.878 35.2367 194.815 36.8033 194.815 38.6207V41.3153C195.16 41.3467 195.755 41.3467 196.131 41.3467C198.199 41.3467 198.763 40.5007 199.045 38.558H200.016C199.797 40.814 199.797 44.1667 199.922 45.8587L198.888 45.8273C198.606 43.728 198.262 42.5687 196.1 42.5687C195.692 42.5687 195.16 42.5687 194.815 42.6313V44.762C194.815 47.0807 194.846 48.992 194.909 50.0573C194.909 50.6213 195.097 50.8093 196.664 50.8093C198.92 50.8093 199.922 50.684 200.894 49.7753C201.834 48.898 202.554 47.1433 202.899 45.9213L203.902 46.1093C203.87 47.018 203.275 51.3107 203.118 52.1253C201.865 52.0627 200.016 52 196.914 52H192.998C191.18 52 188.611 52.094 187.452 52.094L187.483 50.9973L189.081 50.872C189.676 50.8093 189.864 50.59 189.927 49.932C189.99 48.8667 190.084 47.112 190.084 44.5113V38.7147C190.084 36.4273 190.084 35.1113 190.021 34.2967C189.99 33.764 189.708 33.67 189.081 33.6073L187.671 33.5447ZM205.541 33.5447V32.448C206.606 32.448 209.144 32.542 210.742 32.542H215.975C217.886 32.542 219.39 32.4793 220.393 32.354C220.267 33.3253 220.236 36.584 220.267 38.1193L219.233 38.182C219.045 37.3047 218.763 36.1453 218.293 35.3307C217.541 33.9833 217.009 33.7327 214.314 33.7327H213.405C212.967 33.7327 212.841 33.952 212.81 34.2653C212.747 35.2367 212.685 36.8033 212.685 38.6207V41.3153C213.029 41.3467 213.625 41.3467 214.001 41.3467C216.069 41.3467 216.633 40.5007 216.915 38.558H217.886C217.667 40.814 217.667 44.1667 217.792 45.8587L216.758 45.8273C216.476 43.728 216.131 42.5687 213.969 42.5687C213.562 42.5687 213.029 42.5687 212.685 42.6313V44.762C212.685 47.0807 212.716 48.992 212.779 50.0573C212.779 50.6213 212.967 50.8093 214.533 50.8093C216.789 50.8093 217.792 50.684 218.763 49.7753C219.703 48.898 220.424 47.1433 220.769 45.9213L221.771 46.1093C221.74 47.018 221.145 51.3107 220.988 52.1253C219.735 52.0627 217.886 52 214.784 52H210.867C209.05 52 206.481 52.094 205.321 52.094L205.353 50.9973L206.951 50.872C207.546 50.8093 207.734 50.59 207.797 49.932C207.859 48.8667 207.953 47.112 207.953 44.5113V38.7147C207.953 36.4273 207.953 35.1113 207.891 34.2967C207.859 33.764 207.577 33.67 206.951 33.6073L205.541 33.5447ZM233.666 37.3047V44.8873C233.666 47.7073 233.729 49.086 233.76 49.8693C233.791 50.4333 234.011 50.684 234.481 50.7467C235.389 50.872 235.797 50.9347 236.643 50.966L236.549 52.094C235.671 52.0627 233.478 52 231.034 52C229.373 52 227.431 52.094 226.021 52.094L225.927 50.9973C226.553 50.966 226.992 50.872 227.838 50.778C228.433 50.7153 228.809 50.5587 228.841 49.9633C228.903 48.9607 228.935 47.864 228.935 45.044V37.43C228.935 35.6127 228.935 34.3907 228.903 33.67C226.303 33.67 225.864 34.046 225.269 35.268C224.673 36.4587 224.297 37.712 223.953 38.8713L222.919 38.6833C223.201 36.9913 223.42 33.576 223.545 32.2913C224.579 32.4793 226.867 32.542 229.843 32.542H232.789C236.392 32.542 238.178 32.5107 239.651 32.2913C239.588 32.7927 239.275 35.5187 239.369 38.4013L238.335 38.6833C238.021 36.772 237.551 35.5813 237.269 34.892C236.862 33.9833 236.267 33.6073 233.697 33.67C233.666 34.4847 233.666 35.832 233.666 37.3047Z"></path>
</svg>
